<mxfile host="app.diagrams.net" modified="2020-10-18T03:46:04.359Z" agent="5.0 (Windows NT 10.0; Win64; x64) AppleWebKit/537.36 (KHTML, like Gecko) Chrome/86.0.4240.75 Safari/537.36" etag="5RTWwqgluKPJZU9uUYqo" version="13.8.0" type="github">
  <diagram id="O5ZxB66hao3qj8Sptzk_" name="第 1 页">
    <mxGraphModel dx="1422" dy="832" grid="1" gridSize="10" guides="1" tooltips="1" connect="1" arrows="1" fold="1" page="1" pageScale="1" pageWidth="827" pageHeight="1169" math="0" shadow="0">
      <root>
        <mxCell id="0" />
        <mxCell id="1" parent="0" />
        <mxCell id="ZO0kw7dgmr_aJT8GcJCk-1" value="医疗物资管理员" style="rounded=1;whiteSpace=wrap;html=1;" vertex="1" parent="1">
          <mxGeometry x="110" y="110" width="120" height="60" as="geometry" />
        </mxCell>
        <mxCell id="ZO0kw7dgmr_aJT8GcJCk-2" value="系统" style="rounded=1;whiteSpace=wrap;html=1;" vertex="1" parent="1">
          <mxGeometry x="414" y="110" width="120" height="60" as="geometry" />
        </mxCell>
        <mxCell id="ZO0kw7dgmr_aJT8GcJCk-4" value="" style="rounded=0;whiteSpace=wrap;html=1;" vertex="1" parent="1">
          <mxGeometry x="160" y="170" width="10" height="540" as="geometry" />
        </mxCell>
        <mxCell id="ZO0kw7dgmr_aJT8GcJCk-6" value="" style="rounded=0;whiteSpace=wrap;html=1;" vertex="1" parent="1">
          <mxGeometry x="469" y="170" width="10" height="540" as="geometry" />
        </mxCell>
        <mxCell id="ZO0kw7dgmr_aJT8GcJCk-7" value="" style="endArrow=classic;html=1;exitX=1;exitY=0.061;exitDx=0;exitDy=0;exitPerimeter=0;entryX=0.1;entryY=0.061;entryDx=0;entryDy=0;entryPerimeter=0;" edge="1" parent="1" source="ZO0kw7dgmr_aJT8GcJCk-4" target="ZO0kw7dgmr_aJT8GcJCk-6">
          <mxGeometry width="50" height="50" relative="1" as="geometry">
            <mxPoint x="390" y="450" as="sourcePoint" />
            <mxPoint x="440" y="400" as="targetPoint" />
          </mxGeometry>
        </mxCell>
        <mxCell id="ZO0kw7dgmr_aJT8GcJCk-8" value="分配物资" style="text;html=1;align=center;verticalAlign=middle;resizable=0;points=[];autosize=1;" vertex="1" parent="1">
          <mxGeometry x="280" y="180" width="60" height="20" as="geometry" />
        </mxCell>
        <mxCell id="ZO0kw7dgmr_aJT8GcJCk-10" value="" style="endArrow=classic;html=1;entryX=1;entryY=0.152;entryDx=0;entryDy=0;entryPerimeter=0;exitX=0.1;exitY=0.148;exitDx=0;exitDy=0;exitPerimeter=0;" edge="1" parent="1" source="ZO0kw7dgmr_aJT8GcJCk-6" target="ZO0kw7dgmr_aJT8GcJCk-4">
          <mxGeometry width="50" height="50" relative="1" as="geometry">
            <mxPoint x="390" y="450" as="sourcePoint" />
            <mxPoint x="440" y="400" as="targetPoint" />
          </mxGeometry>
        </mxCell>
        <mxCell id="ZO0kw7dgmr_aJT8GcJCk-11" value="提示输入" style="text;html=1;align=center;verticalAlign=middle;resizable=0;points=[];autosize=1;" vertex="1" parent="1">
          <mxGeometry x="280" y="230" width="60" height="20" as="geometry" />
        </mxCell>
        <mxCell id="ZO0kw7dgmr_aJT8GcJCk-12" value="" style="endArrow=classic;html=1;exitX=1;exitY=0.25;exitDx=0;exitDy=0;entryX=0;entryY=0.25;entryDx=0;entryDy=0;" edge="1" parent="1" source="ZO0kw7dgmr_aJT8GcJCk-4" target="ZO0kw7dgmr_aJT8GcJCk-6">
          <mxGeometry width="50" height="50" relative="1" as="geometry">
            <mxPoint x="390" y="450" as="sourcePoint" />
            <mxPoint x="440" y="400" as="targetPoint" />
          </mxGeometry>
        </mxCell>
        <mxCell id="ZO0kw7dgmr_aJT8GcJCk-13" value="输入名称数量" style="text;html=1;align=center;verticalAlign=middle;resizable=0;points=[];autosize=1;" vertex="1" parent="1">
          <mxGeometry x="255" y="280" width="90" height="20" as="geometry" />
        </mxCell>
        <mxCell id="ZO0kw7dgmr_aJT8GcJCk-14" value="" style="endArrow=classic;html=1;entryX=1.1;entryY=0.33;entryDx=0;entryDy=0;entryPerimeter=0;" edge="1" parent="1" target="ZO0kw7dgmr_aJT8GcJCk-4">
          <mxGeometry width="50" height="50" relative="1" as="geometry">
            <mxPoint x="471" y="348" as="sourcePoint" />
            <mxPoint x="440" y="400" as="targetPoint" />
          </mxGeometry>
        </mxCell>
        <mxCell id="ZO0kw7dgmr_aJT8GcJCk-15" value="提示成功" style="text;html=1;align=center;verticalAlign=middle;resizable=0;points=[];autosize=1;" vertex="1" parent="1">
          <mxGeometry x="270" y="330" width="60" height="20" as="geometry" />
        </mxCell>
      </root>
    </mxGraphModel>
  </diagram>
</mxfile>
